<!DOCTYPE svg PUBLIC "-//W3C//DTD SVG 20010904//EN" "http://www.w3.org/TR/2001/REC-SVG-20010904/DTD/svg10.dtd">
<svg version="1.0" xmlns="http://www.w3.org/2000/svg" width="177px" height="143px" viewBox="0 0 1770 1430" preserveAspectRatio="xMidYMid meet">
<g id="layer1" fill="#ffffff" stroke="none">
 <path d="M329 1415 c-120 -20 -320 -109 -327 -146 -2 -11 17 -14 100 -15 125 0 204 -19 317 -76 l84 -42 -56 -17 c-73 -22 -114 -48 -171 -109 -47 -50 -92 -132 -82 -149 3 -5 27 -6 53 -4 l48 5 -45 -29 c-104 -68 -180 -189 -180 -288 0 -50 10 -61 41 -44 12 6 35 15 51 20 l29 8 -30 -35 c-59 -66 -84 -131 -89 -224 -3 -66 0 -97 15 -139 28 -82 44 -86 97 -25 91 104 251 208 405 264 64 24 222 60 260 60 3 0 4 -22 3 -49 -11 -155 101 -324 241 -366 60 -18 186 -20 256 -3 29 6 71 27 100 49 l50 38 53 -16 c29 -8 74 -26 100 -39 55 -28 78 -30 78 -9 0 24 -37 90 -71 130 -17 19 -29 35 -27 35 3 0 31 -9 63 -20 72 -25 75 -25 75 1 0 13 -33 54 -84 106 l-83 85 -6 106 c-12 223 -96 428 -254 615 -147 175 -340 288 -547 322 -115 18 -358 18 -467 0z"/>
 </g>

</svg>