<!DOCTYPE svg PUBLIC "-//W3C//DTD SVG 20010904//EN" "http://www.w3.org/TR/2001/REC-SVG-20010904/DTD/svg10.dtd">
<svg version="1.0" xmlns="http://www.w3.org/2000/svg" width="215px" height="124px" viewBox="0 0 2150 1240" preserveAspectRatio="xMidYMid meet">
<g id="layer1" fill="#ffffff" stroke="none">
 <path d="M1666 1219 c-43 -15 -69 -37 -167 -138 -118 -124 -141 -137 -173 -105 -29 28 -37 54 -46 136 -11 111 -13 112 -163 116 -158 4 -251 -9 -333 -47 -87 -41 -197 -118 -261 -183 -72 -74 -207 -257 -283 -385 -95 -158 -214 -399 -229 -465 -13 -53 -13 -60 4 -78 17 -19 31 -20 209 -20 157 0 196 3 214 15 12 9 56 86 97 173 153 317 239 413 282 314 13 -28 17 -71 17 -187 1 -184 -11 -220 -84 -246 -24 -9 -46 -21 -48 -28 -2 -6 9 -24 25 -40 23 -22 43 -31 89 -38 76 -10 292 -10 367 0 50 7 61 13 78 40 18 30 19 49 17 258 -2 200 0 230 15 253 10 14 22 26 26 26 50 0 219 -257 292 -443 39 -100 31 -97 281 -97 132 0 227 4 239 10 15 9 19 22 19 64 0 88 -23 129 -217 389 -106 142 -120 169 -107 209 4 12 65 80 135 150 150 149 189 208 189 286 0 45 -3 54 -22 61 -13 5 -110 10 -217 13 -165 3 -202 1 -245 -13z"/>
 </g>

</svg>