<!DOCTYPE svg PUBLIC "-//W3C//DTD SVG 20010904//EN" "http://www.w3.org/TR/2001/REC-SVG-20010904/DTD/svg10.dtd">
<svg version="1.0" xmlns="http://www.w3.org/2000/svg" width="165px" height="201px" viewBox="0 0 1650 2010" preserveAspectRatio="xMidYMid meet">
<g id="layer1" fill="#ffffff" stroke="none">
 <path d="M315 1998 c-77 -4 -150 -10 -163 -13 -28 -7 -99 -70 -116 -104 -43 -84 -50 -704 -11 -879 8 -34 75 -103 121 -123 67 -30 357 -42 819 -35 220 3 428 10 462 15 127 18 188 75 209 193 16 92 19 625 3 735 -13 93 -41 142 -101 177 -39 22 -61 25 -228 35 -212 13 -788 12 -995 -1z m321 -253 c41 -32 54 -32 54 0 0 22 4 25 35 25 l35 0 0 -260 0 -260 -35 0 -35 0 0 209 0 209 -31 26 c-17 14 -38 26 -48 26 -38 0 -41 -17 -41 -247 l0 -223 -36 0 -35 0 3 251 c3 237 4 251 23 265 26 20 69 11 111 -21z m468 22 c27 -20 36 -80 36 -257 0 -169 -9 -228 -36 -251 -23 -19 -68 -15 -102 9 -16 12 -35 22 -41 22 -7 0 -11 -38 -11 -115 l0 -115 -35 0 -35 0 0 355 0 355 35 0 c28 0 35 -4 35 -20 0 -26 11 -25 56 5 41 28 71 32 98 12z m341 -1 c38 -16 60 -52 68 -113 l5 -43 -39 0 c-38 0 -39 1 -39 37 0 66 -57 96 -100 53 -18 -18 -20 -31 -18 -98 l3 -77 99 -3 99 -3 -7 -91 c-10 -135 -44 -181 -129 -181 -57 0 -105 27 -123 68 -22 54 -20 348 4 395 30 61 106 85 177 56z m-1103 -308 l3 -313 58 -3 57 -3 0 -39 0 -40 -160 0 -160 0 0 40 0 39 58 3 57 3 3 313 2 312 40 0 40 0 2 -312z"/>
 <path d="M967 1702 c-15 -16 -17 -45 -17 -194 0 -184 1 -188 47 -202 17 -5 29 -1 48 18 25 25 25 28 25 184 0 146 -2 162 -21 186 -24 30 -59 34 -82 8z"/>
 <path d="M1324 1447 c-3 -8 -4 -36 -2 -62 2 -38 8 -52 29 -67 52 -39 107 21 97 107 -3 29 -5 30 -61 33 -42 2 -59 -1 -63 -11z"/>
 <path d="M756 770 c-41 -13 -94 -68 -106 -110 -13 -46 -13 -325 0 -372 6 -21 27 -51 50 -72 37 -34 44 -36 105 -36 60 0 68 3 104 35 51 46 61 89 61 262 0 159 -10 205 -53 251 -44 45 -100 60 -161 42z m74 -146 c6 -14 10 -81 10 -149 0 -68 -4 -135 -10 -149 -11 -29 -44 -35 -54 -10 -3 9 -6 80 -6 159 0 79 3 150 6 159 10 25 43 19 54 -10z"/>
 <path d="M1075 771 c-49 -21 -50 -27 -50 -315 l0 -271 60 0 60 0 3 233 c2 239 4 246 42 222 12 -8 16 -49 20 -232 l5 -223 60 0 60 0 0 290 0 290 -58 3 c-52 3 -59 1 -64 -17 -5 -20 -5 -20 -32 -1 -31 24 -78 33 -106 21z"/>
 <path d="M395 758 c-2 -7 -6 -92 -7 -188 l-3 -175 -64 -185 c-35 -102 -66 -191 -68 -197 -4 -10 14 -13 70 -13 l76 0 16 58 c9 31 24 84 34 117 l17 60 29 -118 29 -117 73 0 c40 0 73 2 73 4 0 2 -31 107 -70 234 l-69 229 -3 149 -3 149 -63 3 c-44 2 -64 -1 -67 -10z"/>
 </g>

</svg>